<svg width="210" height="169" viewBox="0 0 210 169" fill="none" xmlns="http://www.w3.org/2000/svg">
<path d="M166.832 163.594L11.6454 122.012C6.8926 120.739 4.07216 115.853 5.34567 111.101L31.927 11.8976C33.2006 7.14479 38.0857 4.32435 42.8385 5.59786L198.025 47.18C202.778 48.4535 205.599 53.3387 204.325 58.0915L177.744 157.294C176.47 162.047 171.585 164.868 166.832 163.594Z" fill="url(#paint0_linear)"/>
<path d="M56.6305 121.306L56.0133 121.141L57.1582 116.868C57.7561 114.636 56.4321 112.343 54.2007 111.745L29.7022 105.181C27.4708 104.583 25.1776 105.907 24.5797 108.138L23.4348 112.411L22.8176 112.246C21.3596 111.855 19.8606 112.72 19.4699 114.179L17.1833 122.712C17.1153 122.966 17.0877 123.221 17.0921 123.471L55.9761 133.89C56.1054 133.676 56.2086 133.442 56.2767 133.187L58.5633 124.654C58.954 123.196 58.0886 121.697 56.6305 121.306Z" fill="url(#paint1_linear)"/>
<path d="M75.6631 39.8906L67.2352 25.2929C66.2464 23.5803 66.8332 21.3904 68.5458 20.4016C70.2584 19.4129 72.4483 19.9997 73.4371 21.7123L81.865 36.3099C82.8538 38.0225 82.267 40.2124 80.5544 41.2012C78.8418 42.19 76.6519 41.6032 75.6631 39.8906Z" fill="url(#paint2_linear)"/>
<path d="M185.671 58.7692L171.974 55.0991C174.824 55.8626 176.512 58.7877 175.749 61.6369L154.769 139.936C154.005 142.785 151.08 144.474 148.231 143.711L161.928 147.381C164.777 148.144 167.702 146.455 168.466 143.606L189.446 65.307C190.209 62.4578 188.52 59.5326 185.671 58.7692Z" fill="url(#paint3_linear)"/>
<path d="M200.168 45.7083L41.7186 3.25179C36.8352 1.9433 31.817 4.8406 30.5085 9.72395L3.03021 112.274C1.72172 117.158 4.61902 122.176 9.50237 123.484L167.952 165.941C172.835 167.249 177.854 164.352 179.162 159.469L206.64 56.9184C207.949 52.035 205.052 47.0167 200.168 45.7083ZM168.466 143.606C167.702 146.456 164.777 148.144 161.928 147.381L23.9993 110.423C21.1501 109.66 19.4613 106.735 20.2247 103.885L41.205 25.5861C41.9684 22.7369 44.8935 21.0481 47.7427 21.8115L185.671 58.7694C188.521 59.5328 190.209 62.458 189.446 65.3072L168.466 143.606Z" fill="url(#paint4_linear)"/>
<path d="M56.2767 133.188L58.5633 124.654C58.954 123.196 58.0886 121.697 56.6305 121.306L56.0134 121.141L56.5482 119.145L23.9994 110.423C23.9894 110.42 23.9801 110.417 23.9701 110.414L23.4348 112.411L22.8177 112.246C21.3596 111.855 19.8606 112.721 19.47 114.179L17.1833 122.713C16.7926 124.171 17.658 125.67 19.1161 126.06L52.9293 135.121C54.3871 135.511 55.886 134.646 56.2767 133.188Z" fill="url(#paint5_linear)"/>
<path d="M200.168 45.7083L186.347 42.0049C191.23 43.3134 194.128 48.3316 192.819 53.215L165.341 155.765C164.032 160.649 159.014 163.546 154.131 162.237L167.952 165.941C172.835 167.249 177.854 164.352 179.162 159.469L206.64 56.9184C207.949 52.035 205.051 47.0167 200.168 45.7083Z" fill="url(#paint6_linear)"/>
<path d="M20.2246 103.885L41.2049 25.5859C41.9683 22.7367 44.8934 21.0479 47.7426 21.8113L39.1049 19.4968C36.2557 18.7334 33.3306 20.4222 32.5671 23.2714L11.5869 101.571C10.8235 104.42 12.5123 107.345 15.3615 108.109L23.9992 110.423C21.15 109.66 19.4612 106.734 20.2246 103.885Z" fill="url(#paint7_linear)"/>
<path d="M77.0921 51.4439C76.9703 48.594 73.9327 46.4117 70.4778 45.4859C67.0232 44.5602 63.3011 44.931 61.7707 47.3385L35.5256 89.4091C35.3702 89.6891 35.2144 89.9694 35.154 90.1949C34.4094 92.974 38.1471 96.1487 41.3765 97.014C43.2542 97.5172 44.9171 97.319 45.7905 95.8622L50.8596 87.1583L66.7067 91.4045L66.7447 101.477C66.7728 103.175 68.1137 104.178 69.9914 104.681C73.2208 105.547 78.0452 104.666 78.7898 101.887C78.8502 101.662 78.8557 101.341 78.861 101.021L77.0921 51.4439ZM55.6779 78.7898L66.5536 60.1311L66.6429 81.7279L55.6779 78.7898Z" fill="url(#paint8_linear)"/>
<path d="M118.968 85.9281C123.411 85.2672 126.881 81.9309 128.511 75.8471C131.369 65.1822 124.583 60.4663 117.072 58.4539L101.676 54.3284C99.1224 53.6442 96.2469 54.1615 95.6029 56.5648L82.804 104.331C82.3009 106.209 83.8108 108.384 86.9653 109.229L103.638 113.697C112.125 115.971 119.881 113.461 123.061 101.594L123.484 100.018C125.496 92.507 123.086 88.8832 118.968 85.9281ZM105.473 66.2935L113.359 68.4065C116.213 69.1713 116.936 72.1821 116.231 74.811C115.547 77.3649 113.416 79.611 110.562 78.8463L102.676 76.7333L105.473 66.2935ZM111.606 97.4787C110.318 102.285 107.502 103.785 103.747 102.779L96.2363 100.766L100.261 85.7454L107.772 87.7578C111.527 88.7641 113.297 91.1705 111.928 96.2772L111.606 97.4787Z" fill="url(#paint9_linear)"/>
<path d="M160.735 106.698C157.731 105.893 154.976 105.96 154.006 108.679C152.996 111.547 151.393 116.028 145.385 114.418C141.029 113.251 139.194 110.184 140.563 105.076L145.895 85.1738C147.264 80.0667 150.387 78.3275 154.667 79.4745C161.051 81.185 159.989 86.0522 159.54 88.0248C158.966 90.7689 161.298 92.2792 164.453 93.1244C168.433 94.1909 170.592 93.6428 171.8 89.1362C174.355 79.5982 167.693 72.0176 156.953 69.1398C147.115 66.5036 137.641 69.1167 134.179 82.0345L128.846 101.937C125.385 114.855 132.283 121.855 142.122 124.491C152.862 127.369 162.502 123.835 165.179 113.846C166.387 109.339 164.791 107.785 160.735 106.698Z" fill="url(#paint10_linear)"/>
<path d="M163.408 107.694L159.464 122.414C162.154 120.48 164.166 117.626 165.179 113.846C166.07 110.52 165.432 108.803 163.408 107.694Z" fill="url(#paint11_linear)"/>
<path d="M167.189 93.586C169.485 93.6417 170.905 92.4779 171.8 89.1362C172.768 85.5262 172.413 82.1974 171.017 79.2969L167.189 93.586Z" fill="url(#paint12_linear)"/>
<path d="M73.4371 21.7123C72.4483 19.9997 70.2584 19.4129 68.5458 20.4016C66.8332 21.3904 66.2464 23.5803 67.2352 25.2929L68.4247 27.3532L78.2073 29.9745L73.4371 21.7123Z" fill="url(#paint13_linear)"/>
<path d="M80.0479 37.3589L71.6199 22.7612C70.6312 21.0486 71.2179 18.8587 72.9305 17.8699C74.6432 16.8811 76.8331 17.4679 77.8218 19.1805L86.2498 33.7782C87.2386 35.4908 86.6518 37.6807 84.9392 38.6695C83.2266 39.6582 81.0367 39.0715 80.0479 37.3589Z" fill="url(#paint14_linear)"/>
<path d="M62.6216 131.029L30.0431 122.299L33.2173 110.453C33.8152 108.222 36.1084 106.898 38.3398 107.496L62.8384 114.06C65.0697 114.658 66.3937 116.951 65.7958 119.182L62.6216 131.029Z" fill="url(#paint15_linear)"/>
<path d="M62.8384 114.06L54.2007 111.746C56.432 112.343 57.7561 114.637 57.1582 116.868L53.9839 128.715L62.6216 131.029L65.7959 119.183C66.3938 116.951 65.0698 114.658 62.8384 114.06Z" fill="url(#paint16_linear)"/>
<path d="M56.7553 124.169C56.3646 125.627 54.8657 126.493 53.4076 126.102L40.4861 122.639C39.028 122.249 38.1626 120.75 38.5533 119.292C38.9439 117.834 38.0785 116.335 36.6205 115.944L31.4549 114.56C29.9969 114.169 28.4979 115.035 28.1072 116.493L25.8206 125.027C25.4299 126.485 26.2953 127.984 27.7534 128.374L61.5666 137.435C63.0247 137.825 64.5236 136.96 64.9143 135.502L67.2009 126.968C67.5916 125.51 66.7262 124.011 65.2681 123.62L60.103 122.236C58.6449 121.846 57.146 122.711 56.7553 124.169Z" fill="url(#paint17_linear)"/>
<path d="M65.2681 123.62L60.1029 122.236C59.4374 122.058 58.7645 122.144 58.1915 122.425C58.6147 123.057 58.7755 123.861 58.5632 124.653L56.2766 133.187C55.8859 134.645 54.3869 135.511 52.9288 135.12L61.5666 137.434C63.0247 137.825 64.5236 136.96 64.9143 135.502L67.2009 126.968C67.5916 125.51 66.7262 124.011 65.2681 123.62Z" fill="url(#paint18_linear)"/>
<defs>
<linearGradient id="paint0_linear" x1="-62.4503" y1="39.772" x2="140.295" y2="94.0975" gradientUnits="userSpaceOnUse">
<stop stop-color="#7ACAA6"/>
<stop offset="0.5725" stop-color="#09A76D"/>
<stop offset="1" stop-color="#026841"/>
</linearGradient>
<linearGradient id="paint1_linear" x1="-3.54364" y1="107.107" x2="40.3402" y2="118.866" gradientUnits="userSpaceOnUse">
<stop stop-color="#7ACAA6"/>
<stop offset="0.5725" stop-color="#09A76D"/>
<stop offset="1" stop-color="#026841"/>
</linearGradient>
<linearGradient id="paint2_linear" x1="11.2667" y1="13.8449" x2="97.5413" y2="36.9621" gradientUnits="userSpaceOnUse">
<stop stop-color="#7ACAA6"/>
<stop offset="0.5725" stop-color="#09A76D"/>
<stop offset="1" stop-color="#026841"/>
</linearGradient>
<linearGradient id="paint3_linear" x1="143.515" y1="94.9604" x2="182.839" y2="105.497" gradientUnits="userSpaceOnUse">
<stop stop-color="#026841"/>
<stop offset="1" stop-color="#384949"/>
</linearGradient>
<linearGradient id="paint4_linear" x1="14.2151" y1="60.3147" x2="221.223" y2="115.782" gradientUnits="userSpaceOnUse">
<stop stop-color="#FFE177"/>
<stop offset="0.5725" stop-color="#FEB137"/>
<stop offset="1" stop-color="#FE646F"/>
</linearGradient>
<linearGradient id="paint5_linear" x1="0.880223" y1="112.7" x2="64.1524" y2="129.654" gradientUnits="userSpaceOnUse">
<stop stop-color="#FFE177"/>
<stop offset="0.5725" stop-color="#FEB137"/>
<stop offset="1" stop-color="#FE646F"/>
</linearGradient>
<linearGradient id="paint6_linear" x1="108.289" y1="85.5217" x2="187.139" y2="106.65" gradientUnits="userSpaceOnUse">
<stop stop-color="#FFE177"/>
<stop offset="0.5725" stop-color="#FEB137"/>
<stop offset="1" stop-color="#FE646F"/>
</linearGradient>
<linearGradient id="paint7_linear" x1="14.0064" y1="60.2585" x2="42.1526" y2="67.8003" gradientUnits="userSpaceOnUse">
<stop stop-color="#FFE177"/>
<stop offset="0.5725" stop-color="#FEB137"/>
<stop offset="1" stop-color="#FE646F"/>
</linearGradient>
<linearGradient id="paint8_linear" x1="50.9435" y1="69.9146" x2="179.382" y2="104.33" gradientUnits="userSpaceOnUse">
<stop stop-color="#F9F3F1"/>
<stop offset="0.5725" stop-color="#EFE2DD"/>
<stop offset="1" stop-color="#CDBFBA"/>
</linearGradient>
<linearGradient id="paint9_linear" x1="50.883" y1="70.14" x2="179.321" y2="104.555" gradientUnits="userSpaceOnUse">
<stop stop-color="#F9F3F1"/>
<stop offset="0.5725" stop-color="#EFE2DD"/>
<stop offset="1" stop-color="#CDBFBA"/>
</linearGradient>
<linearGradient id="paint10_linear" x1="50.8226" y1="70.3647" x2="179.261" y2="104.78" gradientUnits="userSpaceOnUse">
<stop stop-color="#F9F3F1"/>
<stop offset="0.5725" stop-color="#EFE2DD"/>
<stop offset="1" stop-color="#CDBFBA"/>
</linearGradient>
<linearGradient id="paint11_linear" x1="112.869" y1="102.041" x2="134.753" y2="107.904" gradientUnits="userSpaceOnUse">
<stop stop-color="#F9F3F1"/>
<stop offset="0.5725" stop-color="#EFE2DD"/>
<stop offset="1" stop-color="#CDBFBA"/>
</linearGradient>
<linearGradient id="paint12_linear" x1="120.536" y1="73.4283" x2="142.42" y2="79.2919" gradientUnits="userSpaceOnUse">
<stop stop-color="#F9F3F1"/>
<stop offset="0.5725" stop-color="#EFE2DD"/>
<stop offset="1" stop-color="#CDBFBA"/>
</linearGradient>
<linearGradient id="paint13_linear" x1="51.5798" y1="18.805" x2="84.4256" y2="27.606" gradientUnits="userSpaceOnUse">
<stop stop-color="#FFE177"/>
<stop offset="0.5725" stop-color="#FEB137"/>
<stop offset="1" stop-color="#FE646F"/>
</linearGradient>
<linearGradient id="paint14_linear" x1="58.6439" y1="22.8329" x2="97.4627" y2="33.2344" gradientUnits="userSpaceOnUse">
<stop stop-color="#F9F3F1"/>
<stop offset="0.5725" stop-color="#EFE2DD"/>
<stop offset="1" stop-color="#CDBFBA"/>
</linearGradient>
<linearGradient id="paint15_linear" x1="32.0903" y1="114.335" x2="65.2894" y2="123.23" gradientUnits="userSpaceOnUse">
<stop stop-color="#FFDCBD"/>
<stop offset="0.0028" stop-color="#FFDCBD"/>
<stop offset="1" stop-color="#FFA9B1"/>
</linearGradient>
<linearGradient id="paint16_linear" x1="38.3067" y1="116" x2="67.2283" y2="123.75" gradientUnits="userSpaceOnUse">
<stop stop-color="#FFC2B5"/>
<stop offset="1" stop-color="#FF89A8"/>
</linearGradient>
<linearGradient id="paint17_linear" x1="25.6509" y1="120.408" x2="86.9193" y2="136.825" gradientUnits="userSpaceOnUse">
<stop stop-color="#FE646F"/>
<stop offset="0.5725" stop-color="#FB2B3A"/>
<stop offset="1" stop-color="#C41926"/>
</linearGradient>
<linearGradient id="paint18_linear" x1="21.3339" y1="119.251" x2="66.8429" y2="131.445" gradientUnits="userSpaceOnUse">
<stop stop-color="#FE646F"/>
<stop offset="0.5725" stop-color="#FB2B3A"/>
<stop offset="1" stop-color="#C41926"/>
</linearGradient>
</defs>
</svg>
