<svg width="165" height="188" viewBox="0 0 165 188" fill="none" xmlns="http://www.w3.org/2000/svg">
<path d="M88.6037 10.2726L25.1091 27.286C20.7559 28.4524 18.1782 32.9477 19.3515 37.3266L53.758 165.733C54.9313 170.112 59.4113 172.716 63.7645 171.55L154.055 147.357C158.408 146.19 160.986 141.695 159.812 137.316L132.628 35.8634L88.6037 10.2726Z" fill="url(#paint0_linear)"/>
<path d="M154.054 147.357L142.097 150.561C146.451 149.394 149.028 144.899 147.855 140.52L124.864 54.7172C123.666 50.2445 119.09 47.5846 114.643 48.776L99.4446 52.8484C95.6098 53.876 91.6631 51.5818 90.6295 47.7243L81.1309 12.2749L88.6035 10.2726L132.628 35.8633L159.812 137.316C160.985 141.695 158.408 146.19 154.054 147.357Z" fill="url(#paint1_linear)"/>
<path d="M88.6035 10.2725L96.0788 38.1704C97.1124 42.0279 101.059 44.3221 104.894 43.2946L132.628 35.8633C127.466 16.5981 107.755 5.14075 88.6035 10.2725Z" fill="url(#paint2_linear)"/>
<path d="M91.1165 132.868C94.2345 126.385 95.1344 118.783 93.1215 111.27C88.6739 94.6717 71.6916 84.8001 55.1908 89.2214C47.2712 91.3435 40.9034 96.3734 36.912 102.865L53.7576 165.733C54.9309 170.112 59.4109 172.717 63.7641 171.55L66.9935 170.685L69.6457 166.06C71.626 162.606 76.0219 161.428 79.464 163.429L84.0734 166.108L98.9548 162.121L91.1165 132.868Z" fill="url(#paint3_linear)"/>
<path d="M71.9921 165.431L86.4069 173.81C89.7603 175.76 93.7723 172.668 92.7655 168.91L82.6756 131.254L37.4609 143.369L47.1122 179.388C48.1191 183.146 53.1395 183.817 55.0691 180.452L62.174 168.062C64.1544 164.608 68.5503 163.431 71.9921 165.431Z" fill="url(#paint4_linear)"/>
<path d="M82.6742 131.253L92.7646 168.911C93.7713 172.668 89.7579 175.759 86.4048 173.81L80.3132 170.269L75.9613 154.028C72.9953 156.188 69.5901 157.845 65.8374 158.851C56.8054 161.271 47.6287 159.41 40.4441 154.503L37.4604 143.368L82.6742 131.253Z" fill="url(#paint5_linear)"/>
<path d="M37.4604 143.368L51.1832 139.691L59.8644 172.089L55.0666 180.452C53.1373 183.816 48.1187 183.145 47.112 179.388L37.4604 143.368Z" fill="url(#paint6_linear)"/>
<path d="M56.5929 159.88L51.1832 139.691L37.4604 143.368L40.4441 154.503C45.1683 157.729 50.7539 159.638 56.5929 159.88Z" fill="url(#paint7_linear)"/>
<path d="M82.6744 131.253L92.7649 168.911C93.7715 172.668 89.7582 175.759 86.4051 173.81L78.0717 168.966L68.9517 134.93L82.6744 131.253Z" fill="url(#paint8_linear)"/>
<path d="M75.9616 154.028L80.3134 170.269L86.4051 173.81C89.7582 175.759 93.7715 172.668 92.7649 168.911L82.6744 131.253L68.9517 134.93L74.3589 155.11C74.9045 154.763 75.4423 154.406 75.9616 154.028Z" fill="url(#paint9_linear)"/>
<path d="M63.825 151.333C80.3259 146.911 90.0971 129.871 85.6495 113.273C81.2019 96.6739 64.2198 86.8024 47.7189 91.2238C31.218 95.6452 21.4468 112.685 25.8944 129.284C30.3419 145.882 47.324 155.754 63.825 151.333Z" fill="url(#paint10_linear)"/>
<path d="M47.7188 91.2241C45.671 91.7728 43.7273 92.5162 41.9012 93.4288C56.2836 92.5611 69.7957 101.938 73.6913 116.477C77.5868 131.015 70.5737 145.893 57.6844 152.332C59.722 152.209 61.7771 151.882 63.8249 151.333C80.3257 146.911 90.0971 129.872 85.6495 113.273C81.2018 96.674 64.2196 86.8027 47.7188 91.2241Z" fill="url(#paint11_linear)"/>
<path d="M60.603 139.309C70.5028 136.656 76.365 126.433 73.6967 116.475C71.0283 106.517 60.8399 100.594 50.9402 103.247C41.0405 105.899 35.1782 116.123 37.8466 126.081C40.5149 136.039 50.7033 141.962 60.603 139.309Z" fill="url(#paint12_linear)"/>
<path d="M123.454 59.4291L46.3011 80.1022C45.3333 80.3615 44.3373 79.7825 44.0764 78.809L42.1593 71.6543C41.8985 70.6808 42.4716 69.6814 43.4393 69.4221L120.592 48.749C121.56 48.4897 122.556 49.0687 122.817 50.0422L124.734 57.1969C124.995 58.1704 124.422 59.1698 123.454 59.4291Z" fill="url(#paint13_linear)"/>
<path d="M83.3555 45.6337L40.1663 57.2062C39.1986 57.4655 38.2025 56.8865 37.9417 55.913L36.0246 48.7583C35.7637 47.7848 36.3368 46.7854 37.3046 46.5261L80.4938 34.9536C81.4615 34.6943 82.4576 35.2732 82.7184 36.2467L84.6355 43.4015C84.8964 44.3749 84.3233 45.3744 83.3555 45.6337Z" fill="url(#paint14_linear)"/>
<path d="M135.724 105.221L98.9002 115.088C97.9324 115.347 96.9364 114.768 96.6755 113.795L94.7584 106.64C94.4976 105.667 95.0707 104.667 96.0385 104.408L132.863 94.5409C133.83 94.2816 134.826 94.8606 135.087 95.8341L137.004 102.989C137.265 103.962 136.692 104.962 135.724 105.221Z" fill="url(#paint15_linear)"/>
<path d="M129.589 82.325L92.7649 92.192C91.7972 92.4513 90.8011 91.8723 90.5403 90.8989L88.6232 83.7441C88.3624 82.7707 88.9355 81.7712 89.9032 81.5119L126.727 71.6449C127.695 71.3856 128.691 71.9646 128.952 72.9381L130.869 80.0928C131.13 81.0663 130.557 82.0657 129.589 82.325Z" fill="url(#paint16_linear)"/>
<path d="M141.859 128.117L105.035 137.984C104.067 138.244 103.071 137.665 102.81 136.691L100.893 129.537C100.632 128.563 101.205 127.564 102.173 127.304L138.997 117.437C139.965 117.178 140.961 117.757 141.222 118.731L143.139 125.885C143.4 126.859 142.827 127.858 141.859 128.117Z" fill="url(#paint17_linear)"/>
<defs>
<linearGradient id="paint0_linear" x1="29.1872" y1="103.504" x2="152.002" y2="70.596" gradientUnits="userSpaceOnUse">
<stop stop-color="#F9F3F1"/>
<stop offset="0.5725" stop-color="#EFE2DD"/>
<stop offset="1" stop-color="#CDBFBA"/>
</linearGradient>
<linearGradient id="paint1_linear" x1="49.4098" y1="98.0854" x2="123.146" y2="78.3277" gradientUnits="userSpaceOnUse">
<stop stop-color="#F9F3F1"/>
<stop offset="0.5725" stop-color="#EFE2DD"/>
<stop offset="1" stop-color="#CDBFBA"/>
</linearGradient>
<linearGradient id="paint2_linear" x1="84.4427" y1="30.081" x2="135.281" y2="16.4591" gradientUnits="userSpaceOnUse">
<stop stop-color="#F9F3F1"/>
<stop offset="0.5725" stop-color="#EFE2DD"/>
<stop offset="1" stop-color="#CDBFBA"/>
</linearGradient>
<linearGradient id="paint3_linear" x1="13.7776" y1="142.631" x2="91.8725" y2="121.706" gradientUnits="userSpaceOnUse">
<stop stop-color="#F9F3F1"/>
<stop offset="0.5725" stop-color="#EFE2DD"/>
<stop offset="1" stop-color="#CDBFBA"/>
</linearGradient>
<linearGradient id="paint4_linear" x1="58.8063" y1="160.094" x2="79.8248" y2="154.463" gradientUnits="userSpaceOnUse">
<stop stop-color="#F9F3F1"/>
<stop offset="0.5725" stop-color="#EFE2DD"/>
<stop offset="1" stop-color="#CDBFBA"/>
</linearGradient>
<linearGradient id="paint5_linear" x1="32.513" y1="167.138" x2="74.7222" y2="155.829" gradientUnits="userSpaceOnUse">
<stop stop-color="#F9F3F1"/>
<stop offset="0.5725" stop-color="#EFE2DD"/>
<stop offset="1" stop-color="#CDBFBA"/>
</linearGradient>
<linearGradient id="paint6_linear" x1="37.6715" y1="164.878" x2="58.962" y2="159.174" gradientUnits="userSpaceOnUse">
<stop stop-color="#FE646F"/>
<stop offset="0.5725" stop-color="#FB2B3A"/>
<stop offset="1" stop-color="#C41926"/>
</linearGradient>
<linearGradient id="paint7_linear" x1="30.0048" y1="156.185" x2="53.6974" y2="149.836" gradientUnits="userSpaceOnUse">
<stop stop-color="#FE646F"/>
<stop offset="0.5725" stop-color="#FB2B3A"/>
<stop offset="1" stop-color="#C41926"/>
</linearGradient>
<linearGradient id="paint8_linear" x1="66.3744" y1="158.065" x2="93.0918" y2="150.906" gradientUnits="userSpaceOnUse">
<stop stop-color="#6BD9E7"/>
<stop offset="0.5725" stop-color="#26A6FE"/>
<stop offset="1" stop-color="#0172FB"/>
</linearGradient>
<linearGradient id="paint9_linear" x1="54.3239" y1="161.294" x2="85.7309" y2="152.879" gradientUnits="userSpaceOnUse">
<stop stop-color="#6BD9E7"/>
<stop offset="0.5725" stop-color="#26A6FE"/>
<stop offset="1" stop-color="#0172FB"/>
</linearGradient>
<linearGradient id="paint10_linear" x1="25.7946" y1="129.311" x2="99.0998" y2="109.669" gradientUnits="userSpaceOnUse">
<stop stop-color="#FFE177"/>
<stop offset="0.5725" stop-color="#FEB137"/>
<stop offset="1" stop-color="#FE646F"/>
</linearGradient>
<linearGradient id="paint11_linear" x1="15.7359" y1="132.006" x2="87.0382" y2="112.901" gradientUnits="userSpaceOnUse">
<stop stop-color="#FFE177"/>
<stop offset="0.5725" stop-color="#FEB137"/>
<stop offset="1" stop-color="#FE646F"/>
</linearGradient>
<linearGradient id="paint12_linear" x1="25.5938" y1="129.364" x2="78.0887" y2="115.298" gradientUnits="userSpaceOnUse">
<stop stop-color="#FFE177"/>
<stop offset="0.5725" stop-color="#FEB137"/>
<stop offset="1" stop-color="#FE646F"/>
</linearGradient>
<linearGradient id="paint13_linear" x1="45.6882" y1="74.5429" x2="123.217" y2="53.7693" gradientUnits="userSpaceOnUse">
<stop stop-color="#537983"/>
<stop offset="1" stop-color="#3E5959"/>
</linearGradient>
<linearGradient id="paint14_linear" x1="40.1731" y1="51.4809" x2="136.392" y2="25.6991" gradientUnits="userSpaceOnUse">
<stop stop-color="#537983"/>
<stop offset="1" stop-color="#3E5959"/>
</linearGradient>
<linearGradient id="paint15_linear" x1="52.3443" y1="121.839" x2="135.447" y2="99.5719" gradientUnits="userSpaceOnUse">
<stop stop-color="#537983"/>
<stop offset="1" stop-color="#3E5959"/>
</linearGradient>
<linearGradient id="paint16_linear" x1="46.2091" y1="98.9432" x2="129.312" y2="76.6759" gradientUnits="userSpaceOnUse">
<stop stop-color="#537983"/>
<stop offset="1" stop-color="#3E5959"/>
</linearGradient>
<linearGradient id="paint17_linear" x1="58.4791" y1="144.736" x2="141.582" y2="122.468" gradientUnits="userSpaceOnUse">
<stop stop-color="#537983"/>
<stop offset="1" stop-color="#3E5959"/>
</linearGradient>
</defs>
</svg>
