<svg width="127" height="159" viewBox="0 0 127 159" fill="none" xmlns="http://www.w3.org/2000/svg">
<path d="M117.722 15.2821L27.73 10.6603C23.3912 10.4375 19.6934 13.774 19.4706 18.1128L12.9363 145.343C12.7135 149.682 16.05 153.38 20.3888 153.603L110.381 158.224C114.72 158.447 118.418 155.111 118.64 150.772L125.175 23.5416C125.398 19.2028 122.061 15.5049 117.722 15.2821Z" fill="url(#paint0_linear)"/>
<path d="M117.722 15.282L105.805 14.6699C110.143 14.8928 113.48 18.5906 113.257 22.9294L106.723 150.16C106.5 154.498 102.802 157.835 98.4635 157.612L110.381 158.224C114.72 158.447 118.418 155.11 118.641 150.772L125.175 23.5414C125.398 19.2026 122.061 15.5048 117.722 15.282Z" fill="url(#paint1_linear)"/>
<path d="M72.215 147.31L8.92984 144.06C4.59104 143.837 1.25448 140.139 1.47731 135.8L8.01157 8.56987C8.2344 4.23107 11.9322 0.894503 16.271 1.11733L106.263 5.73913C110.602 5.96196 113.939 9.6598 113.716 13.9986L108.553 114.522L72.215 147.31Z" fill="url(#paint2_linear)"/>
<path d="M106.263 5.73948L94.3459 5.12742C98.6847 5.35025 102.021 9.04808 101.798 13.3869L96.6358 113.91L73.4629 112.72C69.6408 112.524 66.3831 115.463 66.1869 119.285L64.7672 146.928L72.2152 147.31L108.554 114.522L113.716 13.999C113.939 9.66014 110.602 5.96231 106.263 5.73948V5.73948Z" fill="url(#paint3_linear)"/>
<path d="M72.2152 147.31L73.6348 119.668C73.8311 115.846 77.0887 112.906 80.9109 113.102L108.553 114.522C107.573 133.611 91.3038 148.29 72.2152 147.31Z" fill="url(#paint4_linear)"/>
<path d="M52.8346 18.4231C52.2387 16.1201 49.3811 14.8695 46.402 14.7165C43.4232 14.5635 40.4522 15.5144 39.6235 17.7446L25.5494 56.6296C25.4714 56.8851 25.3932 57.1408 25.3832 57.3353C25.2602 59.7316 28.8618 61.6695 31.6464 61.8125C33.2655 61.8957 34.5872 61.4444 35.0457 60.104L37.6633 52.122L51.3277 52.8237L53.1138 61.0319C53.4325 62.4119 54.701 62.9966 56.3201 63.0797C59.1047 63.2227 62.8859 61.664 63.009 59.2677C63.019 59.0735 62.9677 58.8111 62.9161 58.5487L52.8346 18.4231ZM40.135 44.4576L45.7537 27.3449L49.5898 44.9432L40.135 44.4576Z" fill="url(#paint5_linear)"/>
<path d="M89.5546 36.7363L83.3376 36.4171L83.6569 30.2001C83.7367 28.6459 82.1975 27.0086 79.7368 26.8822C77.4054 26.7625 75.5124 28.2238 75.4326 29.7777L75.1133 35.9947L68.8314 35.672C67.0181 35.5789 65.6946 37.329 65.5748 39.6604C65.4484 42.1213 66.5957 43.8036 68.409 43.8967L74.6909 44.2193L74.3683 50.5009C74.2751 52.3142 76.0252 53.638 78.3566 53.7578C80.8175 53.8842 82.4995 52.7365 82.5926 50.9233L82.9152 44.6417L89.1322 44.961C90.6864 45.0408 92.3237 43.5013 92.4501 41.0406C92.5701 38.7092 91.1088 36.8162 89.5546 36.7363Z" fill="url(#paint6_linear)"/>
<path d="M96.1419 75.0092L19.2436 71.0599C18.2791 71.0104 17.4569 71.7522 17.4074 72.7168L17.0433 79.806C16.9937 80.7705 17.7356 81.5927 18.7001 81.6422L95.5984 85.5915C96.563 85.6411 97.3851 84.8992 97.4347 83.9347L97.7988 76.8455C97.8483 75.8809 97.1065 75.0588 96.1419 75.0092Z" fill="url(#paint7_linear)"/>
<path d="M94.9764 97.6958L18.0781 93.7464C17.1135 93.6969 16.2914 94.4387 16.2418 95.4033L15.8778 102.492C15.8282 103.457 16.5701 104.279 17.5346 104.329L94.4329 108.278C95.3974 108.328 96.2196 107.586 96.2691 106.621L96.6332 99.532C96.6828 98.5675 95.9409 97.7453 94.9764 97.6958Z" fill="url(#paint8_linear)"/>
<path d="M50.9195 118.179L16.913 116.432C15.9485 116.383 15.1263 117.125 15.0768 118.089L14.7127 125.179C14.6632 126.143 15.405 126.965 16.3696 127.015L50.376 128.761C51.3405 128.811 52.1627 128.069 52.2122 127.104L52.5763 120.015C52.6258 119.051 51.884 118.229 50.9195 118.179Z" fill="url(#paint9_linear)"/>
<defs>
<linearGradient id="paint0_linear" x1="8.86022" y1="81.3508" x2="131.269" y2="87.6375" gradientUnits="userSpaceOnUse">
<stop stop-color="#7ACAA6"/>
<stop offset="0.5725" stop-color="#09A76D"/>
<stop offset="1" stop-color="#026841"/>
</linearGradient>
<linearGradient id="paint1_linear" x1="-9.75722" y1="80.3945" x2="85.8295" y2="85.3037" gradientUnits="userSpaceOnUse">
<stop stop-color="#7ACAA6"/>
<stop offset="0.5725" stop-color="#09A76D"/>
<stop offset="1" stop-color="#026841"/>
</linearGradient>
<linearGradient id="paint2_linear" x1="-2.59876" y1="71.8078" x2="119.81" y2="78.0945" gradientUnits="userSpaceOnUse">
<stop stop-color="#F9F3F1"/>
<stop offset="0.5725" stop-color="#EFE2DD"/>
<stop offset="1" stop-color="#CDBFBA"/>
</linearGradient>
<linearGradient id="paint3_linear" x1="17.5574" y1="72.8433" x2="91.0508" y2="76.6178" gradientUnits="userSpaceOnUse">
<stop stop-color="#F9F3F1"/>
<stop offset="0.5725" stop-color="#EFE2DD"/>
<stop offset="1" stop-color="#CDBFBA"/>
</linearGradient>
<linearGradient id="paint4_linear" x1="64.2976" y1="129.576" x2="114.968" y2="132.179" gradientUnits="userSpaceOnUse">
<stop stop-color="#F9F3F1"/>
<stop offset="0.5725" stop-color="#EFE2DD"/>
<stop offset="1" stop-color="#CDBFBA"/>
</linearGradient>
<linearGradient id="paint5_linear" x1="22.1161" y1="37.3961" x2="99.3971" y2="41.3651" gradientUnits="userSpaceOnUse">
<stop stop-color="#FE646F"/>
<stop offset="0.5725" stop-color="#FB2B3A"/>
<stop offset="1" stop-color="#C41926"/>
</linearGradient>
<linearGradient id="paint6_linear" x1="22.1161" y1="37.3962" x2="99.3971" y2="41.3652" gradientUnits="userSpaceOnUse">
<stop stop-color="#FE646F"/>
<stop offset="0.5725" stop-color="#FB2B3A"/>
<stop offset="1" stop-color="#C41926"/>
</linearGradient>
<linearGradient id="paint7_linear" x1="19.7872" y1="76.3929" x2="97.0598" y2="80.3615" gradientUnits="userSpaceOnUse">
<stop stop-color="#537983"/>
<stop offset="1" stop-color="#3E5959"/>
</linearGradient>
<linearGradient id="paint8_linear" x1="18.6217" y1="99.0795" x2="95.8943" y2="103.048" gradientUnits="userSpaceOnUse">
<stop stop-color="#537983"/>
<stop offset="1" stop-color="#3E5959"/>
</linearGradient>
<linearGradient id="paint9_linear" x1="17.4566" y1="121.765" x2="94.7293" y2="125.734" gradientUnits="userSpaceOnUse">
<stop stop-color="#537983"/>
<stop offset="1" stop-color="#3E5959"/>
</linearGradient>
</defs>
</svg>
