<svg width="1072" height="209" viewBox="0 0 1072 209" fill="none" xmlns="http://www.w3.org/2000/svg">
<g opacity="0.1">
<path d="M1.08167 182.244C4.04231 85.7363 85.0513 15.3635 170.412 35.4219C171.676 35.7187 172.824 36.4094 173.693 37.3727C178.021 42.1695 173.335 50.3439 166.895 49.8274C94.0641 43.9868 28.6409 102.045 18.1797 182.515C17.2445 189.709 7.96684 193.093 3.10719 187.707C1.76096 186.215 1.02003 184.253 1.08167 182.244Z" stroke="#8482FF" stroke-width="2" stroke-linejoin="round"/>
<path d="M42.1235 297.655C20.1829 273.326 5.65801 241.125 1.9418 205.706C1.18481 198.491 9.78817 195.11 14.6478 200.496C15.9941 201.989 16.7194 203.936 16.7293 205.945C16.9363 248.075 32.4071 286.873 57.8506 315.086L42.1235 297.655Z" stroke="#8482FF" stroke-width="2" stroke-linejoin="round"/>
<path d="M193.202 41.1255L349.639 80.3835C350.898 80.6993 352.034 81.3823 352.903 82.3457C357.231 87.1424 352.722 94.6417 346.456 93.0692L190.018 53.8112C188.76 53.4954 187.624 52.8124 186.755 51.8491C182.427 47.0523 186.936 39.553 193.202 41.1255Z" stroke="#8482FF" stroke-width="2" stroke-linejoin="round"/>
<path d="M372.601 85.2462C413.846 92.094 456.001 88.9865 496.158 76.0603C500.317 74.7217 504.901 75.8697 507.827 79.1133C513.008 84.8552 510.662 93.9997 503.224 96.1187C459.427 108.597 413.53 109.541 369.23 98.7763C367.969 98.47 366.833 97.7845 365.964 96.8212C361.636 92.0244 366.228 84.1881 372.601 85.2462Z" stroke="#8482FF" stroke-width="2" stroke-linejoin="round"/>
<path d="M518.337 68.3606L625.924 30.5133C630.045 29.0635 634.634 30.2315 637.56 33.4751C642.741 39.217 640.408 48.3819 633.113 50.9482L525.526 88.7956C521.405 90.2453 516.816 89.0773 513.89 85.8337C508.709 80.0918 511.042 70.927 518.337 68.3606Z" stroke="#8482FF" stroke-width="2" stroke-linejoin="round"/>
<path d="M648.16 22.9801C728.34 -2.23619 812.874 -5.8339 894.683 12.5907C896.031 12.8942 897.25 13.6121 898.176 14.6377C902.585 19.5247 898.041 27.3616 891.567 26.1757C812.73 11.7356 731.884 17.5316 655.279 43.2073C651.137 44.5957 646.551 43.4389 643.624 40.1953C638.444 34.4533 640.783 25.3002 648.16 22.9801Z" stroke="#8482FF" stroke-width="2" stroke-linejoin="round"/>
<path d="M917.567 17.8465L1203.02 83.4691C1204.36 83.7786 1205.58 84.4947 1206.51 85.5204C1210.92 90.4073 1206.42 98.066 1200 96.5913L914.55 30.9688C913.204 30.6593 911.985 29.9431 911.06 28.9175C906.651 24.0305 911.152 16.3718 917.567 17.8465Z" stroke="#8482FF" stroke-width="2" stroke-linejoin="round"/>
<path d="M57.6231 187.95C60.976 116.413 135.075 64.4649 213.005 79.6334C213.868 79.8013 214.673 80.208 215.326 80.7968C219.047 84.1545 215.85 90.7658 210.852 90.3856C143.915 85.2931 83.4616 128.308 73.3721 188.264C72.3318 194.446 64.6342 197.697 59.98 193.498C58.416 192.086 57.5245 190.055 57.6231 187.95Z" stroke="#8482FF" stroke-width="2" stroke-linejoin="round"/>
<path d="M95.1413 274.923C75.2877 257 62.069 233.344 58.4869 207.305C57.6326 201.094 64.7976 197.844 69.4518 202.043C71.0158 203.454 71.8797 205.474 71.912 207.58C72.3885 238.588 86.4932 267.11 109.534 287.911L95.1413 274.923Z" stroke="#8482FF" stroke-width="2" stroke-linejoin="round"/>
<path d="M232.008 83.5093L377.02 113.136C377.881 113.312 378.679 113.715 379.332 114.304C383.053 117.662 379.96 123.783 375.049 122.78L230.038 93.1535C229.177 92.9775 228.378 92.5742 227.726 91.9854C224.005 88.6277 227.098 82.506 232.008 83.5093Z" stroke="#8482FF" stroke-width="2" stroke-linejoin="round"/>
<path d="M396.115 116.465C434.965 121.918 474.735 119.502 512.518 109.329C515.259 108.591 518.195 109.263 520.302 111.165C525.095 115.49 523.248 123.352 516.957 124.807C476.777 134.102 434.67 134.762 394.044 126.658C393.182 126.486 392.384 126.082 391.732 125.493C388.01 122.135 391.152 115.769 396.115 116.465Z" stroke="#8482FF" stroke-width="2" stroke-linejoin="round"/>
<path d="M531.164 104.026L631.255 75.3607C633.983 74.5793 636.922 75.2599 639.029 77.1611C643.822 81.4864 641.99 89.3955 635.784 91.1731L535.693 119.839C532.965 120.62 530.026 119.939 527.919 118.038C523.126 113.713 524.958 105.804 531.164 104.026Z" stroke="#8482FF" stroke-width="2" stroke-linejoin="round"/>
<path d="M649.948 70.2279C723.432 51.442 800.906 48.8072 875.865 62.6255C876.782 62.7944 877.632 63.2161 878.324 63.8403C882.116 67.2622 879.001 73.639 873.951 72.8717C800.714 61.7445 725.543 66.1649 654.425 85.8549C651.69 86.6121 648.753 85.9364 646.646 84.0351C641.853 79.7098 643.693 71.827 649.948 70.2279Z" stroke="#8482FF" stroke-width="2" stroke-linejoin="round"/>
<path d="M894.923 66.19L1158.04 115.435C1158.96 115.607 1159.81 116.028 1160.5 116.652C1164.29 120.074 1161.2 126.32 1156.18 125.38L893.061 76.1352C892.146 75.9637 891.295 75.5427 890.603 74.9185C886.811 71.4966 889.902 65.2503 894.923 66.19Z" stroke="#8482FF" stroke-width="2" stroke-linejoin="round"/>
<path d="M113.011 192.997C117.141 144.066 184.227 108.789 254.629 119.4C255.138 119.476 255.625 119.67 256.049 119.961C259.062 122.029 257.134 127.09 253.488 126.852C192.67 122.882 137.454 152.208 127.492 193.397C126.251 198.527 120.127 201.597 115.776 198.609C113.932 197.343 112.823 195.226 113.011 192.997Z" stroke="#8482FF" stroke-width="2" stroke-linejoin="round"/>
<path d="M147.031 254.456C129.357 242.314 117.465 226.371 113.918 208.8C112.874 203.626 118.605 200.551 122.957 203.539C124.8 204.805 125.853 206.916 125.95 209.15C126.86 230.105 139.588 249.338 160.118 263.441L147.031 254.456Z" stroke="#8482FF" stroke-width="2" stroke-linejoin="round"/>
<path d="M270.32 121.837L403.759 142.581C404.267 142.66 404.751 142.853 405.175 143.144C408.188 145.212 406.315 149.93 402.704 149.369L269.265 128.624C268.757 128.545 268.273 128.353 267.849 128.062C264.836 125.993 266.709 121.275 270.32 121.837Z" stroke="#8482FF" stroke-width="2" stroke-linejoin="round"/>
<path d="M419.492 144.688C455.732 148.688 492.885 146.95 528.092 139.56C529.654 139.232 531.283 139.549 532.599 140.452C536.775 143.32 535.493 149.726 530.503 150.603C493.85 157.047 455.437 157.478 418.39 151.807C417.882 151.729 417.398 151.536 416.974 151.245C413.962 149.177 415.86 144.287 419.492 144.688Z" stroke="#8482FF" stroke-width="2" stroke-linejoin="round"/>
<path d="M543.604 136.189L636.049 116.042C637.608 115.702 639.238 116.022 640.554 116.925C644.731 119.793 643.462 126.265 638.512 127.343L546.067 147.49C544.508 147.829 542.878 147.51 541.562 146.607C537.385 143.739 538.654 137.267 543.604 136.189Z" stroke="#8482FF" stroke-width="2" stroke-linejoin="round"/>
<path d="M651.59 112.81C718.529 99.7992 789.107 98.003 857.377 107.632C857.915 107.708 858.427 107.908 858.875 108.215C861.947 110.325 860.059 115.229 856.358 114.794C788.862 106.86 719.525 109.985 654.021 123.969C652.461 124.302 650.832 123.983 649.517 123.08C645.34 120.212 646.616 113.777 651.59 112.81Z" stroke="#8482FF" stroke-width="2" stroke-linejoin="round"/>
<path d="M873.095 109.869L1113.95 144.171C1114.49 144.248 1115 144.448 1115.45 144.755C1118.52 146.864 1116.65 151.677 1112.96 151.152L872.101 116.85C871.563 116.773 871.05 116.573 870.602 116.266C867.53 114.156 869.405 109.344 873.095 109.869Z" stroke="#8482FF" stroke-width="2" stroke-linejoin="round"/>
<path d="M173.316 197.064C178.663 166.326 237.768 144.436 299.664 151.255C299.92 151.283 300.171 151.356 300.403 151.471C302.63 152.574 301.615 156.177 299.133 156.05C245.41 153.319 196.412 171.627 186.437 197.61C184.892 201.636 180.198 204.431 176.333 202.518C174.262 201.493 172.92 199.341 173.316 197.064Z" stroke="#8482FF" stroke-width="2" stroke-linejoin="round"/>
<path d="M203.434 238.038C188.248 230.517 177.851 220.726 174.286 209.916C172.935 205.82 177.34 203.016 181.205 204.929C183.276 205.955 184.5 208.102 184.771 210.398C186.295 223.291 197.471 235.083 215.101 243.815L203.434 238.038Z" stroke="#8482FF" stroke-width="2" stroke-linejoin="round"/>
<path d="M312.604 152.704L432.617 166.157C432.873 166.185 433.123 166.259 433.354 166.373C435.582 167.476 434.592 170.846 432.122 170.57L312.109 157.117C311.852 157.088 311.603 157.015 311.371 156.9C309.144 155.798 310.134 152.427 312.604 152.704Z" stroke="#8482FF" stroke-width="2" stroke-linejoin="round"/>
<path d="M445.574 167.415C478.469 170.094 512.23 168.946 544.164 164.028C544.932 163.909 545.718 164.029 546.414 164.374C549.7 166.001 548.942 170.82 545.305 171.281C512.531 175.434 478.178 175.7 445.06 172.02C444.803 171.991 444.554 171.918 444.322 171.803C442.095 170.701 443.097 167.214 445.574 167.415Z" stroke="#8482FF" stroke-width="2" stroke-linejoin="round"/>
<path d="M557.025 162.009L640.41 148.907C641.178 148.786 641.964 148.906 642.661 149.251C645.946 150.878 645.198 155.764 641.577 156.333L558.191 169.435C557.424 169.556 556.637 169.436 555.94 169.091C552.655 167.464 553.403 162.578 557.025 162.009Z" stroke="#8482FF" stroke-width="2" stroke-linejoin="round"/>
<path d="M653.285 146.983C713.064 138.607 776.096 137.464 837.055 143.69C837.325 143.717 837.589 143.793 837.832 143.914C840.106 145.039 839.107 148.542 836.579 148.325C775.824 143.115 713.373 145.155 654.436 154.313C653.668 154.432 652.883 154.312 652.186 153.967C648.901 152.341 649.655 147.492 653.285 146.983Z" stroke="#8482FF" stroke-width="2" stroke-linejoin="round"/>
<path d="M850.007 145.019L1065.8 167.178C1066.07 167.206 1066.33 167.282 1066.58 167.403C1068.85 168.528 1067.86 171.968 1065.34 171.709L849.542 149.55C849.271 149.522 849.008 149.446 848.764 149.325C846.491 148.2 847.483 144.76 850.007 145.019Z" stroke="#8482FF" stroke-width="2" stroke-linejoin="round"/>
<path d="M249.455 200.361C256.193 183.06 305.067 170.983 356.143 174.917C356.253 174.925 356.362 174.948 356.466 174.983C357.919 175.482 357.461 177.789 355.927 177.733C311.264 176.089 270.373 186.358 260.7 201.128C258.866 203.928 255.376 206.298 252.21 205.212C250.114 204.493 248.651 202.426 249.455 200.361Z" stroke="#8482FF" stroke-width="2" stroke-linejoin="round"/>
<path d="M274.5 225.831C262.364 221.665 253.84 216.312 250.383 210.39C248.695 207.499 251.856 205.09 255.022 206.176C257.119 206.895 258.39 208.958 259.052 211.073C261.238 218.066 270.419 224.428 284.379 229.22L274.5 225.831Z" stroke="#8482FF" stroke-width="2" stroke-linejoin="round"/>
<path d="M366.557 175.725L468.716 183.662C468.826 183.67 468.934 183.693 469.039 183.728C470.491 184.227 470.044 186.387 468.513 186.268L366.355 178.332C366.245 178.323 366.136 178.301 366.032 178.265C364.58 177.767 365.027 175.606 366.557 175.725Z" stroke="#8482FF" stroke-width="2" stroke-linejoin="round"/>
<path d="M479.136 184.365C507.286 185.975 536.196 185.291 563.51 182.345C563.834 182.31 564.161 182.347 564.47 182.453C566.713 183.223 566.343 186.447 563.98 186.655C536.172 189.098 507.022 189.25 478.927 187.077C478.817 187.069 478.708 187.046 478.604 187.01C477.152 186.512 477.603 184.278 479.136 184.365Z" stroke="#8482FF" stroke-width="2" stroke-linejoin="round"/>
<path d="M573.892 181.215L645.002 173.471C645.326 173.436 645.654 173.472 645.963 173.578C648.206 174.348 647.841 177.627 645.483 177.884L574.372 185.628C574.048 185.664 573.72 185.627 573.412 185.521C571.168 184.751 571.534 181.472 573.892 181.215Z" stroke="#8482FF" stroke-width="2" stroke-linejoin="round"/>
<path d="M655.39 172.398C706.064 167.477 759.499 166.81 811.169 170.477C811.285 170.485 811.399 170.508 811.509 170.546C812.993 171.055 812.541 173.301 810.975 173.208C759.239 170.111 706.039 171.319 655.865 176.753C655.54 176.789 655.213 176.752 654.905 176.646C652.661 175.876 653.03 172.627 655.39 172.398Z" stroke="#8482FF" stroke-width="2" stroke-linejoin="round"/>
<path d="M821.588 171.218L1004.85 184.261C1004.97 184.269 1005.08 184.292 1005.19 184.33C1006.68 184.839 1006.23 187.045 1004.66 186.934L821.398 173.891C821.282 173.883 821.168 173.86 821.058 173.822C819.575 173.313 820.024 171.107 821.588 171.218Z" stroke="#8482FF" stroke-width="2" stroke-linejoin="round"/>
<path d="M1049.61 192.523C1040.12 189.271 1028.44 186.739 1015.25 185.221C1013.69 185.042 1013.26 187.097 1014.74 187.606C1014.85 187.644 1014.96 187.667 1015.08 187.675C1032.41 188.921 1047.66 191.856 1059.49 195.913L1049.61 192.523Z" stroke="#8482FF" stroke-width="2" stroke-linejoin="round"/>
<path d="M1049.61 192.523C1063.65 197.34 1072.88 203.739 1075.07 210.768C1075.73 212.884 1077 214.946 1079.1 215.665V215.665C1082.26 216.751 1085.43 214.343 1083.74 211.449C1080.28 205.491 1071.71 200.103 1059.49 195.913L1049.61 192.523Z" stroke="#8482FF" stroke-width="2" stroke-linejoin="round"/>
</g>
</svg>
